<svg width="45" height="45" viewBox="0 0 45 45" fill="none" xmlns="http://www.w3.org/2000/svg">
<g clip-path="url(#clip0_1_836)">
<path d="M0 13.4206C0.00462973 9.86266 1.42007 6.45177 3.93592 3.93592C6.45177 1.42007 9.86267 0.00462973 13.4206 0L44.4262 0V6.82404H13.4206C11.6739 6.83323 10.0014 7.53118 8.76629 8.76629C7.53118 10.0014 6.83323 11.6739 6.82404 13.4206V24.8727C6.68419 26.3412 6.06126 27.7218 5.05279 28.7984C4.04433 29.8749 2.70729 30.5866 1.25107 30.8219L0 31.0056V13.4206Z" fill="white"/>
<path d="M0 44.33V37.5147H30.9969C32.7496 37.5124 34.4302 36.8163 35.6712 35.5785C36.9122 34.3408 37.6128 32.6621 37.6197 30.9094V20.0434C37.6272 18.4659 38.1954 16.9424 39.2227 15.7452C40.25 14.548 41.6696 13.7551 43.2277 13.5081L44.435 13.3243V30.9094C44.4257 34.4689 43.0064 37.8798 40.4878 40.3951C37.9692 42.9105 34.5564 44.3254 30.9969 44.33H0Z" fill="white"/>
<path d="M26.2463 31.0319V22.2131L22.2131 27.0424L18.1711 22.2131V31.0319H12.8169V13.6743H17.8912L22.2131 19.256L26.535 13.6743H31.6005V31.0319H26.2463Z" fill="white"/>
</g>
<defs>
<clipPath id="clip0_1_836">
<rect width="44.4262" height="44.33" fill="white"/>
</clipPath>
</defs>
</svg>
